<svg xmlns="http://www.w3.org/2000/svg" xmlns:xlink="http://www.w3.org/1999/xlink" width="100" height="100" viewBox="0 0 100 100"><g transform="translate(50 50) scale(0.69 0.69) rotate(270) translate(-50 -50)" style="fill:#0097ba"><svg fill="#0097ba" xmlns:dc="http://purl.org/dc/elements/1.1/" xmlns:cc="http://creativecommons.org/ns#" xmlns:rdf="http://www.w3.org/1999/02/22-rdf-syntax-ns#" xmlns:svg="http://www.w3.org/2000/svg" xmlns="http://www.w3.org/2000/svg" version="1.1" viewBox="0 0 100 100" xml:space="preserve" x="0px" y="0px"><path d="m 33.5625,5 0,4.625 4.625,0 0,-4.625 -4.625,0 z m 28.25,0 0,4.625 4.625,0 0,-4.625 -4.625,0 z m -28.25,6 0,4.625 4.625,0 0,-4.625 -4.625,0 z m 28.25,0 0,4.625 4.625,0 0,-4.625 -4.625,0 z m -28.25,6 0,4.625 4.625,0 0,-4.625 -4.625,0 z m 28.25,0 0,4.625 4.625,0 0,-4.625 -4.625,0 z m -28.25,5.96875 0,4.65625 4.625,0 0,-4.65625 -4.625,0 z m 28.25,0 0,4.65625 4.625,0 0,-4.65625 -4.625,0 z m -28.25,6 0,4.65625 4.625,0 0,-4.65625 -4.625,0 z m 28.25,0 0,4.65625 4.625,0 0,-4.65625 -4.625,0 z m -23.28125,5 0,4.34375 4.3125,0 0,-4.34375 -4.3125,0 z m 18.625,0 0,4.34375 4.3125,0 0,-4.34375 -4.3125,0 z m -13.96875,4.6875 0,4.34375 4.3125,0 0,-4.34375 -4.3125,0 z m 9.3125,0 0,4.34375 4.3125,0 0,-4.34375 -4.3125,0 z m -4.65625,4.6875 0,4.3125 4.3125,0 0,-4.3125 -4.3125,0 z m -4.65625,4.6875 0,4.3125 4.3125,0 0,-4.3125 -4.3125,0 z m 9.3125,0 0,4.3125 4.3125,0 0,-4.3125 -4.3125,0 z m -13.96875,4.6875 0,4.3125 4.3125,0 0,-4.3125 -4.3125,0 z m 18.625,0 0,4.3125 4.3125,0 0,-4.3125 -4.3125,0 z m -23.59375,4.6875 0,4.65625 4.625,0 0,-4.65625 -4.625,0 z m 28.25,0 0,4.65625 4.625,0 0,-4.65625 -4.625,0 z m -28.25,6 0,4.65625 4.625,0 0,-4.65625 -4.625,0 z m 28.25,0 0,4.65625 4.625,0 0,-4.65625 -4.625,0 z m -28.25,6 0,4.625 4.625,0 0,-4.625 -4.625,0 z m 28.25,0 0,4.625 4.625,0 0,-4.625 -4.625,0 z m -37.25,6 L 35.875,95 47.1875,75.40625 l -22.625,0 z m 28.25,0 L 64.125,95 75.4375,75.40625 l -22.625,0 z" style="" fill="#0097ba" fill-opacity="1" fill-rule="evenodd" stroke="none"></path></svg></g></svg>